# AST/ASF file generated using VICON BodyLanguage
# -----------------------------------------------
:version 1.10
:name VICON
:units
  mass 1.0
  length 0.45
  angle deg
:documentation
   .ast/.asf automatically generated from VICON data using
   VICON BodyBuilder and BodyLanguage model FoxedUp or BRILLIANT.MOD
:root
   order TX TY TZ RX RY RZ
   axis XYZ
   position 0 0 0  
   orientation 0 0 0 
:bonedata
  begin
     id 1 
     name lhipjoint
     direction 0.623415 -0.642378 0.445763 
     length 2.49859 
     axis 0 0 0  XYZ
  end
  begin
     id 2 
     name lfemur
     direction 0.34202 -0.939693 0  
     length 6.69689  
     axis 0 0 20  XYZ
    dof rx ry rz
    limits (-160.0 20.0)
           (-70.0 70.0)
           (-60.0 70.0)
  end
  begin
     id 3 
     name ltibia
     direction 0.34202 -0.939693 0   
     length 7.37574   
     axis 0 0 20   XYZ
    dof rx
    limits (-10.0 170.0)
  end
  begin
     id 4 
     name lfoot
     direction 0.084323 -0.231675 0.969132   
     length 2.09111   
     axis -90 7.62852e-016 20   XYZ
    dof rx rz
    limits (-45.0 90.0)
           (-70.0 20.0)
  end
  begin
     id 5 
     name ltoes
     direction 1.5357e-011 -4.21957e-011 1   
     length 1.04989   
     axis -90 7.62852e-016 20   XYZ
    dof rx
    limits (-90.0 20.0)
  end
  begin
     id 6 
     name rhipjoint
     direction -0.605402 -0.653903 0.45376   
     length 2.45455  
     axis 0 0 0  XYZ 
  end
  begin
     id 7 
     name rfemur
     direction -0.34202 -0.939693 0   
     length 6.64523   
     axis 0 0 -20   XYZ
    dof rx ry rz
    limits (-160.0 20.0)
           (-70.0 70.0)
           (-70.0 60.0)
  end
  begin
     id 8 
     name rtibia
     direction -0.34202 -0.939693 0   
     length 7.3339   
     axis 0 0 -20   XYZ
    dof rx
    limits (-10.0 170.0)
 end
 begin
     id 9 
     name rfoot
     direction -0.120854 -0.332043 0.93549   
     length 2.23135  
     axis -90 -7.62852e-016 -20   XYZ
    dof rx rz
    limits (-45.0 90.0)
           (-20.0 70.0)
  end
  begin
     id 10 
     name rtoes
     direction -1.53563e-011 -4.21914e-011 1   
     length 1.10614   
     axis -90 -7.62852e-016 -20   XYZ
    dof rx
    limits (-90.0 20.0)
  end
  begin
     id 11 
     name lowerback
     direction 0.0319682 0.998615 -0.0417941   
     length 2.02718   
     axis 0 0 0   XYZ
    dof rx ry rz
    limits (-20.0 45.0)
           (-30.0 30.0)
           (-30.0 30.0)
  end
  begin
     id 12 
     name upperback
     direction 7.63181e-005 0.995808 0.0914691   
     length 1.97539   
     axis 0 0 0   XYZ
    dof rx ry rz
    limits (-20.0 45.0)
           (-30.0 30.0)
           (-30.0 30.0)
  end
  begin
     id 13 
     name thorax
     direction -0.016423 0.993627 0.111514   
     length 2.00349   
     axis 0 0 0   XYZ
    dof rx ry rz
    limits (-20.0 45.0)
           (-30.0 30.0)
           (-30.0 30.0)
  end
  begin
     id 14 
     name lowerneck
     direction -0.174763 0.981668 -0.0760716   
     length 1.71436   
     axis 0 0 0   XYZ
    dof rx ry rz
    limits (-20.0 45.0)
           (-30.0 30.0)
           (-30.0 30.0)
  end
  begin
     id 15 
     name upperneck
     direction 0.345458 0.934587 -0.0848868   
     length 1.72805   
     axis 0 0 0   XYZ
    dof rx ry rz
    limits (-20.0 45.0)
           (-30.0 30.0)
           (-30.0 30.0)
  end
  begin
     id 16
     name head
     direction 0.13001 0.989848 -0.0574291  
     length 1.767  
     axis 0 0 0   XYZ
    dof rx ry rz
    limits (-20.0 45.0)
           (-30.0 30.0)
           (-30.0 30.0)
  end
  begin
     id 17 
     name lclavicle
     direction 0.952951 0.290122 0.0878234  
     length 3.54654  
     axis 0 0 0   XYZ
    dof ry rz
    limits (-20.0 10.0)
           (0.0 20.0)
  end
  begin
     id 18 
     name lhumerus
     direction 1 -4.48957e-011 -4.56525e-028   
     length 5.19807   
     axis 180 -30 -90   XYZ
    dof rx ry rz
    limits (-60.0 90.0)
           (-90.0 90.0)
           (-90.0 90.0)
  end
  begin
     id 19
     name lradius
     direction 1 -4.48979e-011 -2.0317e-027   
     length 3.0937   
     axis 180 -30 -90   XYZ
    dof rx
    limits (-10.0 170.0)
  end
  begin
     id 20
     name lwrist
     direction 1 -4.48953e-011 -3.05809e-027   
     length 1.54685   
     axis 8.48514e-016 90 90   XYZ
    dof ry
    limits (-180.0 0.0)
 end
  begin
     id 21 
     name lhand
     direction 1 -4.48952e-011 -6.11639e-027   
     length 0.672632   
     axis 3.9013e-015 90 90   XYZ
    dof rx rz
    limits (-90.0 90.0)
           (-45.0 45.0)
  end
  begin
     id 22 
     name lfingers
     direction 1 -4.48925e-011 -1.22426e-026   
     length 0.542293   
     axis 7.80276e-015 90 90   XYZ
    dof rx
    limits (0.0 90.0)
  end
  begin
     id 23
     name lthumb
     direction 0.707107 -6.3486e-011 0.707107   
     length 0.778628   
     axis -90 45 5.37419e-014   XYZ
    dof rx rz
    limits (-45.0 45.0)
           (-45.0 45.0)
  end
  begin
     id 24 
     name rclavicle
     direction -0.960732 0.273675 -0.0457849   
     length 3.52079  
     axis 0 0 0   XYZ 
    dof ry rz
    limits (-10.0 20.0)
           (-20.0 0.0)
  end
  begin
     id 25 
     name rhumerus
     direction -1 -4.48976e-011 -1.63613e-027  
     length 5.45222   
     axis 180 30 90   XYZ
    dof rx ry rz
    limits (-90.0 60.0)
           (-90.0 90.0)
           (-90.0 90.0)
  end
  begin
     id 26 
     name rradius
     direction -1 -4.48957e-011 -7.00033e-028   
     length 3.01284   
     axis 180 30 90   XYZ
    dof rx
    limits (-10.0 170.0)
  end
  begin
     id 27 
     name rwrist
     direction -1 -4.48983e-011 -3.05543e-027   
     length 1.50642   
     axis 8.48514e-016 -90 -90   XYZ
    dof ry
    limits (-180.0 0.0)
  end
  begin
     id 28
     name rhand
     direction -1 -4.48984e-011 -6.11072e-027   
     length 0.622296   
     axis 3.9013e-015 -90 -90   XYZ
    dof rx rz
    limits (-90.0 90.0)
           (-45.0 45.0)
  end
  begin
     id 29
     name rfingers
     direction -1 -4.48865e-011 -1.22637e-026   
     length 0.501711   
     axis 7.80276e-015 -90 -90   XYZ
    dof rx
    limits (0.0 90.0)
  end
  begin
     id 30
     name rthumb
     direction -0.707107 -6.34932e-011 0.707107   
     length 0.72036   
     axis -90 -45 -5.37419e-014   XYZ
    dof rx rz
    limits (-45.0 45.0)
           (-45.0 45.0)
  end
:hierarchy
  begin
    root lhipjoint rhipjoint lowerback
    lhipjoint lfemur
    lfemur ltibia
    ltibia lfoot
    lfoot ltoes
    rhipjoint rfemur
    rfemur rtibia
    rtibia rfoot
    rfoot rtoes
    lowerback upperback
    upperback thorax
    thorax lowerneck lclavicle rclavicle
    lowerneck upperneck
    upperneck head
    lclavicle lhumerus
    lhumerus lradius
    lradius lwrist
    lwrist lhand lthumb
    lhand lfingers
    rclavicle rhumerus
    rhumerus rradius
    rradius rwrist
    rwrist rhand rthumb
    rhand rfingers
  end

#!OML:ASF H:\Not Pregnant\Project 1\Capture day 1\Session 1\non-pregnant.ASF
:FULLY-SPECIFIED
:DEGREES
121
root -5.47998 16.3166 34.9525 139.134 -84.256 -128.317
lowerback -13.7168 1.70711 3.50143
upperback -4.14983 1.56751 0.477774
thorax 3.39521 0.69799 -1.22354
lowerneck 30.5809 -2.51819 -34.6019
upperneck -12.6127 -13.5539 44.0983
head -2.93315 -10.3677 29.7386
rclavicle 1.66109e-014 1.45113e-014
rhumerus 1.20073 7.95209 -93.4323
rradius 140.96
rwrist 39.1915
rhand -59.2495 6.25331
rfingers 7.12502
rthumb -31.4371 -21.0639
lclavicle 1.66109e-014 1.45113e-014
lhumerus -0.837244 -19.9274 89.8558
lradius 145.266
lwrist 10.7399
lhand -38.2225 -67.9108
lfingers 7.12502
lthumb -11.2538 -38.2326
rfemur 0 0 0
rtibia 0
rfoot 0 0
rtoes 0
lfemur -15.1418 3.86119 -15.9421
ltibia 16.0303
lfoot -13.0497 -5.56662
ltoes -16.5661
122
root -5.48548 16.3188 34.9512 139.168 -84.2665 -128.234
lowerback -13.6444 1.84789 3.59191
upperback -4.26881 1.74975 0.328865
thorax 3.24686 0.782869 -1.40323
lowerneck 30.5077 -2.74282 -34.2129
upperneck -13.0265 -13.6331 44.2582
head -3.00941 -10.4347 29.7838
rclavicle -1.53313e-014 -3.97569e-015
rhumerus 0.782823 6.09802 -93.1619
rradius 141.716
rwrist 38.6988
rhand -59.5061 7.94388
rfingers 7.12502
rthumb -31.6815 -19.3254
lclavicle -1.53313e-014 -3.97569e-015
lhumerus -0.911883 -19.0201 89.407
lradius 146.155
lwrist 11.5778
lhand -38.7776 -69.1281
lfingers 7.12502
lthumb -11.7892 -39.4799
rfemur 0 0 0
rtibia 0
rfoot 0 0
rtoes 0
lfemur -15.2492 3.89408 -15.9518
ltibia 16.0165
lfoot -13.0505 -5.6073
ltoes -16.5338
123
root -5.49128 16.3207 34.9498 139.232 -84.2815 -128.194
lowerback -13.5827 1.98424 3.65922
upperback -4.37674 1.92835 0.188377
thorax 3.11618 0.866235 -1.5617
lowerneck 30.4627 -2.96478 -33.8157
upperneck -13.4306 -13.711 44.3939
head -3.09262 -10.5006 29.7978
rclavicle 1.28465e-014 3.97569e-016
rhumerus 0.374981 4.62915 -92.843
rradius 142.418
rwrist 37.7405
rhand -59.628 10.0071
rfingers 7.12502
rthumb -31.7976 -17.2392
lclavicle 1.28465e-014 3.97569e-016
lhumerus -0.9803 -18.2646 88.9918
lradius 147.006
lwrist 12.6718
lhand -39.153 -70.0246
lfingers 7.12502
lthumb -12.1512 -40.3975
rfemur 0 0 0
rtibia 0
rfoot 0 0
rtoes 0
lfemur -15.3369 3.93516 -15.9687
ltibia 15.9918
lfoot -13.0508 -5.65948
ltoes -16.4795
124
root -5.49723 16.3223 34.9484 139.267 -84.296 -128.136
lowerback -13.5282 2.0935 3.70111
upperback -4.48129 2.07223 0.0827892
thorax 2.99011 0.93233 -1.67522
lowerneck 30.4251 -3.15368 -33.4714
upperneck -13.784 -13.7696 44.4938
head -3.17258 -10.5507 29.7902
rclavicle -1.64991e-014 -5.96354e-015
rhumerus -0.0418421 3.52835 -92.523
rradius 143.051
rwrist 36.484
rhand -59.6234 12.5667
rfingers 7.12502
rthumb -31.7932 -14.6805
lclavicle -1.64991e-014 -5.96354e-015
lhumerus -1.08154 -17.571 88.6224
lradius 147.81
lwrist 13.9286
lhand -39.3246 -70.6699
lfingers 7.12502
lthumb -12.3166 -41.0527
rfemur 0 0 0
rtibia 0
rfoot 0 0
rtoes 0
lfemur -15.4052 3.97926 -15.9839
ltibia 15.9571
lfoot -13.0506 -5.71949
ltoes -16.4175
125
root -5.50318 16.3237 34.9472 139.348 -84.3202 -128.138
lowerback -13.4838 2.15159 3.69307
upperback -4.59166 2.15138 0.0329583
thorax 2.85655 0.965929 -1.71303
lowerneck 30.393 -3.27278 -33.2476
upperneck -14.0468 -13.7923 44.5506
head -3.24163 -10.5716 29.784
rclavicle -2.58669e-014 -1.19271e-014
rhumerus -0.47865 2.82857 -92.1736
rradius 143.596
rwrist 35.115
rhand -59.5844 14.6567
rfingers 7.12502
rthumb -31.7561 -12.5978
lclavicle -2.58669e-014 -1.19271e-014
lhumerus -1.25824 -16.8495 88.3107
lradius 148.559
lwrist 15.2022
lhand -39.3207 -71.1174
lfingers 7.12502
lthumb -12.3129 -41.4999
rfemur 0 0 0
rtibia 0
rfoot 0 0
rtoes 0
lfemur -15.455 4.02776 -16.0122
ltibia 15.9158
lfoot -13.0508 -5.79075
ltoes -16.3469
126
root -5.50898 16.3248 34.9462 139.4 -84.3416 -128.127
lowerback -13.4495 2.17009 3.6519
upperback -4.70542 2.17896 0.0400993
thorax 2.71871 0.973827 -1.68097
lowerneck 30.3609 -3.32811 -33.1503
upperneck -14.2135 -13.792 44.5732
head -3.28796 -10.5712 29.7856
rclavicle 7.57867e-015 5.56597e-015
rhumerus -0.922746 2.40396 -91.8036
rradius 144.057
rwrist 33.7197
rhand -59.4635 16.9045
rfingers 7.12502
rthumb -31.6409 -10.3728
lclavicle 7.57867e-015 5.56597e-015
lhumerus -1.50272 -16.0814 88.0607
lradius 149.232
lwrist 16.379
lhand -39.1944 -71.3978
lfingers 7.12502
lthumb -12.1911 -41.7731
rfemur 0 0 0
rtibia 0
rfoot 0 0
rtoes 0
lfemur -15.4871 4.07328 -16.0364
ltibia 15.872
lfoot -13.0522 -5.85804
ltoes -16.3062
127
root -5.51446 16.3257 34.9456 139.442 -84.3638 -128.12
lowerback -13.4319 2.15621 3.57989
upperback -4.81967 2.16427 0.0984508
thorax 2.58407 0.96098 -1.58445
lowerneck 30.3323 -3.32065 -33.1836
upperneck -14.2816 -13.7756 44.5701
head -3.30676 -10.5545 29.8061
rclavicle -1.10077e-014 -1.11319e-014
rhumerus -1.37212 2.19907 -91.4026
rradius 144.428
rwrist 32.4378
rhand -59.3202 18.8828
rfingers 7.12502
rthumb -31.5044 -8.42127
lclavicle -1.10077e-014 -1.11319e-014
lhumerus -1.80555 -15.2481 87.8716
lradius 149.815
lwrist 17.3929
lhand -38.9607 -71.5637
lfingers 7.12502
lthumb -11.9657 -41.9257
rfemur 0 0 0
rtibia 0
rfoot 0 0
rtoes 0
lfemur -15.5018 4.1108 -16.0603
ltibia 15.8257
lfoot -13.0511 -5.92201
ltoes -16.2592
128
root -5.51958 16.3261 34.9451 139.464 -84.3798 -128.108
lowerback -13.4297 2.13662 3.50424
upperback -4.91472 2.14146 0.17429
thorax 2.47671 0.945315 -1.46817
lowerneck 30.2785 -3.30555 -33.2659
upperneck -14.2829 -13.7727 44.5538
head -3.29004 -10.5418 29.8068
rclavicle 4.66647e-014 4.37326e-015
rhumerus -1.78902 2.08654 -90.9872
rradius 144.715
rwrist 31.3681
rhand -59.1747 20.2763
rfingers 7.12502
rthumb -31.3658 -7.05483
lclavicle 4.66647e-014 4.37326e-015
lhumerus -2.09646 -14.4033 87.7057
lradius 150.278
lwrist 18.1728
lhand -38.6813 -71.652
lfingers 7.12502
lthumb -11.6963 -41.9985
rfemur 0 0 0
rtibia 0
rfoot 0 0
rtoes 0
lfemur -15.5002 4.15132 -16.0783
ltibia 15.7814
lfoot -13.053 -5.98192
ltoes -16.2473
